<?xml version="1.0" encoding="UTF-8"?>
<svg id="Layer_2" xmlns="http://www.w3.org/2000/svg" version="1.1" viewBox="0 0 96 96">
  <!-- Generator: Adobe Illustrator 29.1.0, SVG Export Plug-In . SVG Version: 2.1.0 Build 142)  -->
  <defs>
    <style>
      .st0 {
        fill: #070707;
      }

      .st1 {
        fill: #010101;
      }

      .st2 {
        fill: #151515;
      }

      .st3 {
        fill: #121212;
      }

      .st4 {
        fill: #080808;
      }

      .st5 {
        fill: #1a1a1a;
      }

      .st6 {
        fill: #0e0e0e;
      }
    </style>
  </defs>
  <rect x="82.9" y="18.9" width="2" height="2"/>
  <rect x="82.9" y="20.9" width="2" height="2"/>
  <rect x="82.9" y="22.9" width="2" height="2"/>
  <rect x="82.9" y="24.9" width="2" height="2"/>
  <rect x="82.9" y="26.9" width="2" height="2"/>
  <rect x="82.9" y="28.9" width="2" height="2"/>
  <rect x="82.9" y="30.9" width="2" height="2"/>
  <rect x="82.9" y="32.9" width="2" height="2"/>
  <rect x="82.9" y="34.9" width="2" height="2"/>
  <rect x="82.9" y="36.9" width="2" height="2"/>
  <rect x="82.9" y="38.9" width="2" height="2"/>
  <rect x="82.9" y="40.9" width="2" height="2"/>
  <rect x="82.9" y="42.9" width="2" height="2"/>
  <rect x="82.9" y="44.9" width="2" height="2"/>
  <rect x="82.9" y="46.9" width="2" height="2"/>
  <rect x="82.9" y="48.9" width="2" height="2"/>
  <rect x="82.9" y="50.9" width="2" height="2"/>
  <rect x="82.9" y="52.9" width="2" height="2"/>
  <rect x="82.9" y="54.9" width="2" height="2"/>
  <rect x="82.9" y="56.9" width="2" height="2"/>
  <rect x="82.9" y="58.9" width="2" height="2"/>
  <rect x="82.9" y="60.9" width="2" height="2"/>
  <rect x="82.9" y="62.9" width="2" height="2"/>
  <rect x="82.9" y="64.9" width="2" height="2"/>
  <rect x="82.9" y="66.9" width="2" height="2"/>
  <rect x="82.9" y="68.9" width="2" height="2"/>
  <rect x="82.9" y="70.9" width="2" height="2"/>
  <rect x="82.9" y="72.9" width="2" height="2"/>
  <rect x="82.9" y="74.9" width="2" height="2"/>
  <rect x="80.9" y="18.9" width="2" height="2"/>
  <rect x="80.9" y="20.9" width="2" height="2"/>
  <rect x="80.9" y="22.9" width="2" height="2"/>
  <rect x="80.9" y="24.9" width="2" height="2"/>
  <rect x="80.9" y="26.9" width="2" height="2"/>
  <rect x="80.9" y="28.9" width="2" height="2"/>
  <rect x="80.9" y="30.9" width="2" height="2"/>
  <rect x="80.9" y="32.9" width="2" height="2"/>
  <rect x="80.9" y="34.9" width="2" height="2"/>
  <rect x="80.9" y="36.9" width="2" height="2"/>
  <rect x="80.9" y="38.9" width="2" height="2"/>
  <rect x="80.9" y="40.9" width="2" height="2"/>
  <rect x="80.9" y="42.9" width="2" height="2"/>
  <rect x="80.9" y="44.9" width="2" height="2"/>
  <rect x="80.9" y="46.9" width="2" height="2"/>
  <rect x="80.9" y="48.9" width="2" height="2"/>
  <rect x="80.9" y="50.9" width="2" height="2"/>
  <rect x="80.9" y="52.9" width="2" height="2"/>
  <rect x="80.9" y="54.9" width="2" height="2"/>
  <rect x="80.9" y="56.9" width="2" height="2"/>
  <rect x="80.9" y="58.9" width="2" height="2"/>
  <rect x="80.9" y="60.9" width="2" height="2"/>
  <rect x="80.9" y="62.9" width="2" height="2"/>
  <rect x="80.9" y="64.9" width="2" height="2"/>
  <rect x="80.9" y="66.9" width="2" height="2"/>
  <rect x="80.9" y="68.9" width="2" height="2"/>
  <rect x="80.9" y="70.9" width="2" height="2"/>
  <rect x="80.9" y="72.9" width="2" height="2"/>
  <rect x="80.9" y="74.9" width="2" height="2"/>
  <rect x="78.9" y="18.9" width="2" height="2"/>
  <rect x="78.9" y="20.9" width="2" height="2"/>
  <rect x="78.9" y="22.9" width="2" height="2"/>
  <rect x="78.9" y="24.9" width="2" height="2"/>
  <rect x="78.9" y="26.9" width="2" height="2"/>
  <rect x="78.9" y="28.9" width="2" height="2"/>
  <rect x="78.9" y="30.9" width="2" height="2"/>
  <rect x="78.9" y="32.9" width="2" height="2"/>
  <rect x="78.9" y="34.9" width="2" height="2"/>
  <rect x="78.9" y="36.9" width="2" height="2"/>
  <rect x="78.9" y="38.9" width="2" height="2"/>
  <rect x="78.9" y="40.9" width="2" height="2"/>
  <rect x="78.9" y="42.9" width="2" height="2"/>
  <rect x="78.9" y="44.9" width="2" height="2"/>
  <rect x="78.9" y="46.9" width="2" height="2"/>
  <rect x="78.9" y="48.9" width="2" height="2"/>
  <rect x="78.9" y="50.9" width="2" height="2"/>
  <rect x="78.9" y="52.9" width="2" height="2"/>
  <rect x="78.9" y="54.9" width="2" height="2"/>
  <rect x="78.9" y="56.9" width="2" height="2"/>
  <rect x="78.9" y="58.9" width="2" height="2"/>
  <rect x="78.9" y="60.9" width="2" height="2"/>
  <rect x="78.9" y="62.9" width="2" height="2"/>
  <rect x="78.9" y="64.9" width="2" height="2"/>
  <rect x="78.9" y="66.9" width="2" height="2"/>
  <rect x="78.9" y="68.9" width="2" height="2"/>
  <rect x="78.9" y="70.9" width="2" height="2"/>
  <rect x="78.9" y="72.9" width="2" height="2"/>
  <rect x="78.9" y="74.9" width="2" height="2"/>
  <rect x="76.9" y="18.9" width="2" height="2"/>
  <rect x="76.9" y="20.9" width="2" height="2"/>
  <rect x="76.9" y="22.9" width="2" height="2"/>
  <rect x="76.9" y="24.9" width="2" height="2"/>
  <rect x="76.9" y="26.9" width="2" height="2"/>
  <rect x="76.9" y="28.9" width="2" height="2"/>
  <rect x="76.9" y="70.9" width="2" height="2"/>
  <rect x="76.9" y="72.9" width="2" height="2"/>
  <rect x="76.9" y="74.9" width="2" height="2"/>
  <rect x="74.9" y="18.9" width="2" height="2"/>
  <rect x="74.9" y="20.9" width="2" height="2"/>
  <rect x="74.9" y="22.9" width="2" height="2"/>
  <rect x="74.9" y="24.9" width="2" height="2"/>
  <rect x="74.9" y="26.9" width="2" height="2"/>
  <rect x="74.9" y="28.9" width="2" height="2"/>
  <rect x="74.9" y="70.9" width="2" height="2"/>
  <rect x="74.9" y="72.9" width="2" height="2"/>
  <rect x="74.9" y="74.9" width="2" height="2"/>
  <rect x="72.9" y="18.9" width="2" height="2"/>
  <rect x="72.9" y="20.9" width="2" height="2"/>
  <rect x="72.9" y="22.9" width="2" height="2"/>
  <rect x="72.9" y="24.9" width="2" height="2"/>
  <rect x="72.9" y="26.9" width="2" height="2"/>
  <rect x="72.9" y="28.9" width="2" height="2"/>
  <rect x="72.9" y="70.9" width="2" height="2"/>
  <rect x="72.9" y="72.9" width="2" height="2"/>
  <rect x="72.9" y="74.9" width="2" height="2"/>
  <rect x="70.9" y="18.9" width="2" height="2"/>
  <rect x="70.9" y="20.9" width="2" height="2"/>
  <rect x="70.9" y="22.9" width="2" height="2"/>
  <rect x="70.9" y="24.9" width="2" height="2"/>
  <rect x="70.9" y="26.9" width="2" height="2"/>
  <rect x="70.9" y="28.9" width="2" height="2"/>
  <rect x="70.9" y="70.9" width="2" height="2"/>
  <rect x="70.9" y="72.9" width="2" height="2"/>
  <rect x="70.9" y="74.9" width="2" height="2"/>
  <rect x="68.9" y="18.9" width="2" height="2"/>
  <rect x="68.9" y="20.9" width="2" height="2"/>
  <rect x="68.9" y="22.9" width="2" height="2"/>
  <rect x="68.9" y="24.9" width="2" height="2"/>
  <rect x="68.9" y="26.9" width="2" height="2"/>
  <rect x="68.9" y="28.9" width="2" height="2"/>
  <rect x="68.9" y="70.9" width="2" height="2"/>
  <rect x="68.9" y="72.9" width="2" height="2"/>
  <rect x="68.9" y="74.9" width="2" height="2"/>
  <rect x="66.9" y="18.9" width="2" height="2"/>
  <rect x="66.9" y="20.9" width="2" height="2"/>
  <rect x="66.9" y="22.9" width="2" height="2"/>
  <rect x="66.9" y="24.9" width="2" height="2"/>
  <rect x="66.9" y="26.9" width="2" height="2"/>
  <rect x="66.9" y="28.9" width="2" height="2"/>
  <rect x="66.9" y="70.9" width="2" height="2"/>
  <rect x="66.9" y="72.9" width="2" height="2"/>
  <rect x="66.9" y="74.9" width="2" height="2"/>
  <rect x="64.9" y="18.9" width="2" height="2"/>
  <rect x="64.9" y="20.9" width="2" height="2"/>
  <rect x="64.9" y="22.9" width="2" height="2"/>
  <rect x="64.9" y="24.9" width="2" height="2"/>
  <rect x="64.9" y="26.9" width="2" height="2"/>
  <rect x="64.9" y="28.9" width="2" height="2"/>
  <rect x="64.9" y="58.9" width="2" height="2"/>
  <rect x="64.9" y="60.9" width="2" height="2"/>
  <rect x="64.9" y="62.9" width="2" height="2"/>
  <rect x="64.9" y="70.9" width="2" height="2"/>
  <rect x="64.9" y="72.9" width="2" height="2"/>
  <rect x="64.9" y="74.9" width="2" height="2"/>
  <rect x="62.9" y="18.9" width="2" height="2"/>
  <rect x="62.9" y="20.9" width="2" height="2"/>
  <rect x="62.9" y="22.9" width="2" height="2"/>
  <rect x="62.9" y="24.9" width="2" height="2"/>
  <rect x="62.9" y="26.9" width="2" height="2"/>
  <rect x="62.9" y="28.9" width="2" height="2"/>
  <rect x="62.9" y="58.9" width="2" height="2"/>
  <rect x="62.9" y="60.9" width="2" height="2"/>
  <rect x="62.9" y="62.9" width="2" height="2"/>
  <rect x="62.9" y="70.9" width="2" height="2"/>
  <rect x="62.9" y="72.9" width="2" height="2"/>
  <rect x="62.9" y="74.9" width="2" height="2"/>
  <rect x="60.9" y="18.9" width="2" height="2"/>
  <rect x="60.9" y="20.9" width="2" height="2"/>
  <rect x="60.9" y="22.9" width="2" height="2"/>
  <rect x="60.9" y="24.9" width="2" height="2"/>
  <rect x="60.9" y="26.9" width="2" height="2"/>
  <rect x="60.9" y="28.9" width="2" height="2"/>
  <rect x="60.9" y="58.9" width="2" height="2"/>
  <rect x="60.9" y="60.9" width="2" height="2"/>
  <rect x="60.9" y="62.9" width="2" height="2"/>
  <rect x="60.9" y="70.9" width="2" height="2"/>
  <rect x="60.9" y="72.9" width="2" height="2"/>
  <rect x="60.9" y="74.9" width="2" height="2"/>
  <rect x="58.9" y="18.9" width="2" height="2"/>
  <rect x="58.9" y="20.9" width="2" height="2"/>
  <rect x="58.9" y="22.9" width="2" height="2"/>
  <rect x="58.9" y="24.9" width="2" height="2"/>
  <rect x="58.9" y="26.9" width="2" height="2"/>
  <rect x="58.9" y="28.9" width="2" height="2"/>
  <rect x="58.9" y="58.9" width="2" height="2"/>
  <rect x="58.9" y="60.9" width="2" height="2"/>
  <rect x="58.9" y="62.9" width="2" height="2"/>
  <rect x="58.9" y="70.9" width="2" height="2"/>
  <rect x="58.9" y="72.9" width="2" height="2"/>
  <rect x="58.9" y="74.9" width="2" height="2"/>
  <rect x="56.9" y="18.9" width="2" height="2"/>
  <rect x="56.9" y="20.9" width="2" height="2"/>
  <rect x="56.9" y="22.9" width="2" height="2"/>
  <rect x="56.9" y="24.9" width="2" height="2"/>
  <rect x="56.9" y="26.9" width="2" height="2"/>
  <rect x="56.9" y="28.9" width="2" height="2"/>
  <rect x="56.9" y="58.9" width="2" height="2"/>
  <rect x="56.9" y="60.9" width="2" height="2"/>
  <rect x="56.9" y="62.9" width="2" height="2"/>
  <rect x="56.9" y="70.9" width="2" height="2"/>
  <rect x="56.9" y="72.9" width="2" height="2"/>
  <rect x="56.9" y="74.9" width="2" height="2"/>
  <rect x="54.9" y="18.9" width="2" height="2"/>
  <rect x="54.9" y="20.9" width="2" height="2"/>
  <rect x="54.9" y="22.9" width="2" height="2"/>
  <rect x="54.9" y="24.9" width="2" height="2"/>
  <rect x="54.9" y="26.9" width="2" height="2"/>
  <rect x="54.9" y="28.9" width="2" height="2"/>
  <rect x="54.9" y="58.9" width="2" height="2"/>
  <rect x="54.9" y="60.9" width="2" height="2"/>
  <rect x="54.9" y="62.9" width="2" height="2"/>
  <rect x="54.9" y="70.9" width="2" height="2"/>
  <rect x="54.9" y="72.9" width="2" height="2"/>
  <rect x="54.9" y="74.9" width="2" height="2"/>
  <rect x="52.9" y="18.9" width="2" height="2"/>
  <rect x="52.9" y="20.9" width="2" height="2"/>
  <rect x="52.9" y="22.9" width="2" height="2"/>
  <rect x="52.9" y="24.9" width="2" height="2"/>
  <rect x="52.9" y="26.9" width="2" height="2"/>
  <rect x="52.9" y="28.9" width="2" height="2"/>
  <rect x="52.9" y="58.9" width="2" height="2"/>
  <rect x="52.9" y="60.9" width="2" height="2"/>
  <rect x="52.9" y="62.9" width="2" height="2"/>
  <rect x="52.9" y="70.9" width="2" height="2"/>
  <rect x="52.9" y="72.9" width="2" height="2"/>
  <rect x="52.9" y="74.9" width="2" height="2"/>
  <rect x="50.9" y="18.9" width="2" height="2"/>
  <rect x="50.9" y="20.9" width="2" height="2"/>
  <rect x="50.9" y="22.9" width="2" height="2"/>
  <rect x="50.9" y="24.9" width="2" height="2"/>
  <rect x="50.9" y="26.9" width="2" height="2"/>
  <rect x="50.9" y="28.9" width="2" height="2"/>
  <rect x="50.9" y="58.9" width="2" height="2"/>
  <rect x="50.9" y="60.9" width="2" height="2"/>
  <rect x="50.9" y="62.9" width="2" height="2"/>
  <rect x="50.9" y="70.9" width="2" height="2"/>
  <rect x="50.9" y="72.9" width="2" height="2"/>
  <rect x="50.9" y="74.9" width="2" height="2"/>
  <rect x="48.9" y="18.9" width="2" height="2"/>
  <rect x="48.9" y="20.9" width="2" height="2"/>
  <rect x="48.9" y="22.9" width="2" height="2"/>
  <rect x="48.9" y="24.9" width="2" height="2"/>
  <rect x="48.9" y="26.9" width="2" height="2"/>
  <rect x="48.9" y="28.9" width="2" height="2"/>
  <rect x="48.9" y="58.9" width="2" height="2"/>
  <rect x="48.9" y="60.9" width="2" height="2"/>
  <rect x="48.9" y="62.9" width="2" height="2"/>
  <rect x="48.9" y="70.9" width="2" height="2"/>
  <rect x="48.9" y="72.9" width="2" height="2"/>
  <rect x="48.9" y="74.9" width="2" height="2"/>
  <rect x="46.9" y="18.9" width="2" height="2"/>
  <rect x="46.9" y="20.9" width="2" height="2"/>
  <rect x="46.9" y="22.9" width="2" height="2"/>
  <rect x="46.9" y="24.9" width="2" height="2"/>
  <rect x="46.9" y="26.9" width="2" height="2"/>
  <rect x="46.9" y="28.9" width="2" height="2"/>
  <rect x="46.9" y="58.9" width="2" height="2"/>
  <rect x="46.9" y="60.9" width="2" height="2"/>
  <rect x="46.9" y="62.9" width="2" height="2"/>
  <rect x="46.9" y="70.9" width="2" height="2"/>
  <rect x="46.9" y="72.9" width="2" height="2"/>
  <rect x="46.9" y="74.9" width="2" height="2"/>
  <rect x="44.9" y="18.9" width="2" height="2"/>
  <rect x="44.9" y="20.9" width="2" height="2"/>
  <rect x="44.9" y="22.9" width="2" height="2"/>
  <rect x="44.9" y="24.9" width="2" height="2"/>
  <rect x="44.9" y="26.9" width="2" height="2"/>
  <rect x="44.9" y="28.9" width="2" height="2"/>
  <rect x="44.9" y="70.9" width="2" height="2"/>
  <rect x="44.9" y="72.9" width="2" height="2"/>
  <rect x="44.9" y="74.9" width="2" height="2"/>
  <rect x="42.9" y="18.9" width="2" height="2"/>
  <rect x="42.9" y="20.9" width="2" height="2"/>
  <rect x="42.9" y="22.9" width="2" height="2"/>
  <rect x="42.9" y="24.9" width="2" height="2"/>
  <rect x="42.9" y="26.9" width="2" height="2"/>
  <rect x="42.9" y="28.9" width="2" height="2"/>
  <rect x="42.9" y="70.9" width="2" height="2"/>
  <rect x="42.9" y="72.9" width="2" height="2"/>
  <rect x="42.9" y="74.9" width="2" height="2"/>
  <rect x="40.9" y="18.9" width="2" height="2"/>
  <rect x="40.9" y="20.9" width="2" height="2"/>
  <rect x="40.9" y="22.9" width="2" height="2"/>
  <rect x="40.9" y="24.9" width="2" height="2"/>
  <rect x="40.9" y="26.9" width="2" height="2"/>
  <rect x="40.9" y="28.9" width="2" height="2"/>
  <rect x="40.9" y="70.9" width="2" height="2"/>
  <rect x="40.9" y="72.9" width="2" height="2"/>
  <rect x="40.9" y="74.9" width="2" height="2"/>
  <rect x="38.9" y="18.9" width="2" height="2"/>
  <rect x="38.9" y="20.9" width="2" height="2"/>
  <rect x="38.9" y="22.9" width="2" height="2"/>
  <rect x="38.9" y="24.9" width="2" height="2"/>
  <rect x="38.9" y="26.9" width="2" height="2"/>
  <rect x="38.9" y="28.9" width="2" height="2"/>
  <rect x="38.9" y="50.9" width="2" height="2"/>
  <rect x="38.9" y="70.9" width="2" height="2"/>
  <rect x="38.9" y="72.9" width="2" height="2"/>
  <rect x="38.9" y="74.9" width="2" height="2"/>
  <rect x="36.9" y="18.9" width="2" height="2"/>
  <rect x="36.9" y="20.9" width="2" height="2"/>
  <rect x="36.9" y="22.9" width="2" height="2"/>
  <rect x="36.9" y="24.9" width="2" height="2"/>
  <rect x="36.9" y="26.9" width="2" height="2"/>
  <rect x="36.9" y="28.9" width="2" height="2"/>
  <rect class="st1" x="36.9" y="48.9" width="2" height="2"/>
  <rect x="36.9" y="50.9" width="2" height="2"/>
  <rect class="st1" x="36.9" y="52.9" width="2" height="2"/>
  <rect x="36.9" y="70.9" width="2" height="2"/>
  <rect x="36.9" y="72.9" width="2" height="2"/>
  <rect x="36.9" y="74.9" width="2" height="2"/>
  <rect x="34.9" y="18.9" width="2" height="2"/>
  <rect x="34.9" y="20.9" width="2" height="2"/>
  <rect x="34.9" y="22.9" width="2" height="2"/>
  <rect x="34.9" y="24.9" width="2" height="2"/>
  <rect x="34.9" y="26.9" width="2" height="2"/>
  <rect x="34.9" y="28.9" width="2" height="2"/>
  <rect x="34.9" y="46.9" width="2" height="2"/>
  <rect x="34.9" y="48.9" width="2" height="2"/>
  <rect x="34.9" y="50.9" width="2" height="2"/>
  <rect x="34.9" y="52.9" width="2" height="2"/>
  <rect class="st4" x="34.9" y="54.9" width="2" height="2"/>
  <rect x="34.9" y="70.9" width="2" height="2"/>
  <rect x="34.9" y="72.9" width="2" height="2"/>
  <rect x="34.9" y="74.9" width="2" height="2"/>
  <rect x="32.9" y="18.9" width="2" height="2"/>
  <rect x="32.9" y="20.9" width="2" height="2"/>
  <rect x="32.9" y="22.9" width="2" height="2"/>
  <rect x="32.9" y="24.9" width="2" height="2"/>
  <rect x="32.9" y="26.9" width="2" height="2"/>
  <rect x="32.9" y="28.9" width="2" height="2"/>
  <rect x="32.9" y="44.9" width="2" height="2"/>
  <rect x="32.9" y="46.9" width="2" height="2"/>
  <rect x="32.9" y="48.9" width="2" height="2"/>
  <rect x="32.9" y="50.9" width="2" height="2"/>
  <rect x="32.9" y="52.9" width="2" height="2"/>
  <rect x="32.9" y="54.9" width="2" height="2"/>
  <rect class="st5" x="32.9" y="56.9" width="2" height="2"/>
  <rect x="32.9" y="70.9" width="2" height="2"/>
  <rect x="32.9" y="72.9" width="2" height="2"/>
  <rect x="32.9" y="74.9" width="2" height="2"/>
  <rect x="30.9" y="18.9" width="2" height="2"/>
  <rect x="30.9" y="20.9" width="2" height="2"/>
  <rect x="30.9" y="22.9" width="2" height="2"/>
  <rect x="30.9" y="24.9" width="2" height="2"/>
  <rect x="30.9" y="26.9" width="2" height="2"/>
  <rect x="30.9" y="28.9" width="2" height="2"/>
  <rect class="st2" x="30.9" y="42.9" width="2" height="2"/>
  <rect x="30.9" y="44.9" width="2" height="2"/>
  <rect class="st6" x="30.9" y="46.9" width="2" height="2"/>
  <rect class="st0" x="30.9" y="54.9" width="2" height="2"/>
  <rect x="30.9" y="56.9" width="2" height="2"/>
  <rect x="30.9" y="58.9" width="2" height="2"/>
  <rect x="30.9" y="70.9" width="2" height="2"/>
  <rect x="30.9" y="72.9" width="2" height="2"/>
  <rect x="30.9" y="74.9" width="2" height="2"/>
  <rect x="28.9" y="18.9" width="2" height="2"/>
  <rect x="28.9" y="20.9" width="2" height="2"/>
  <rect x="28.9" y="22.9" width="2" height="2"/>
  <rect x="28.9" y="24.9" width="2" height="2"/>
  <rect x="28.9" y="26.9" width="2" height="2"/>
  <rect x="28.9" y="28.9" width="2" height="2"/>
  <rect x="28.9" y="40.9" width="2" height="2"/>
  <rect x="28.9" y="42.9" width="2" height="2"/>
  <rect x="28.9" y="44.9" width="2" height="2"/>
  <rect x="28.9" y="56.9" width="2" height="2"/>
  <rect x="28.9" y="58.9" width="2" height="2"/>
  <rect x="28.9" y="60.9" width="2" height="2"/>
  <rect x="28.9" y="70.9" width="2" height="2"/>
  <rect x="28.9" y="72.9" width="2" height="2"/>
  <rect x="28.9" y="74.9" width="2" height="2"/>
  <rect x="26.9" y="18.9" width="2" height="2"/>
  <rect x="26.9" y="20.9" width="2" height="2"/>
  <rect x="26.9" y="22.9" width="2" height="2"/>
  <rect x="26.9" y="24.9" width="2" height="2"/>
  <rect x="26.9" y="26.9" width="2" height="2"/>
  <rect x="26.9" y="28.9" width="2" height="2"/>
  <rect x="26.9" y="70.9" width="2" height="2"/>
  <rect x="26.9" y="72.9" width="2" height="2"/>
  <rect x="26.9" y="74.9" width="2" height="2"/>
  <rect x="24.9" y="18.9" width="2" height="2"/>
  <rect x="24.9" y="20.9" width="2" height="2"/>
  <rect x="24.9" y="22.9" width="2" height="2"/>
  <rect x="24.9" y="24.9" width="2" height="2"/>
  <rect x="24.9" y="26.9" width="2" height="2"/>
  <rect x="24.9" y="28.9" width="2" height="2"/>
  <rect x="24.9" y="70.9" width="2" height="2"/>
  <rect x="24.9" y="72.9" width="2" height="2"/>
  <rect x="24.9" y="74.9" width="2" height="2"/>
  <rect x="22.9" y="18.9" width="2" height="2"/>
  <rect x="22.9" y="20.9" width="2" height="2"/>
  <rect x="22.9" y="22.9" width="2" height="2"/>
  <rect x="22.9" y="24.9" width="2" height="2"/>
  <rect x="22.9" y="26.9" width="2" height="2"/>
  <rect x="22.9" y="28.9" width="2" height="2"/>
  <rect x="22.9" y="70.9" width="2" height="2"/>
  <rect x="22.9" y="72.9" width="2" height="2"/>
  <rect x="22.9" y="74.9" width="2" height="2"/>
  <rect x="20.9" y="18.9" width="2" height="2"/>
  <rect x="20.9" y="20.9" width="2" height="2"/>
  <rect x="20.9" y="22.9" width="2" height="2"/>
  <rect x="20.9" y="24.9" width="2" height="2"/>
  <rect x="20.9" y="26.9" width="2" height="2"/>
  <rect x="20.9" y="28.9" width="2" height="2"/>
  <rect x="20.9" y="70.9" width="2" height="2"/>
  <rect x="20.9" y="72.9" width="2" height="2"/>
  <rect x="20.9" y="74.9" width="2" height="2"/>
  <rect x="18.9" y="18.9" width="2" height="2"/>
  <rect x="18.9" y="20.9" width="2" height="2"/>
  <rect x="18.9" y="22.9" width="2" height="2"/>
  <rect x="18.9" y="24.9" width="2" height="2"/>
  <rect x="18.9" y="26.9" width="2" height="2"/>
  <rect x="18.9" y="28.9" width="2" height="2"/>
  <rect x="18.9" y="70.9" width="2" height="2"/>
  <rect x="18.9" y="72.9" width="2" height="2"/>
  <rect x="18.9" y="74.9" width="2" height="2"/>
  <rect x="16.9" y="18.9" width="2" height="2"/>
  <rect x="16.9" y="20.9" width="2" height="2"/>
  <rect x="16.9" y="22.9" width="2" height="2"/>
  <rect x="16.9" y="24.9" width="2" height="2"/>
  <rect x="16.9" y="26.9" width="2" height="2"/>
  <rect x="16.9" y="28.9" width="2" height="2"/>
  <rect x="16.9" y="70.9" width="2" height="2"/>
  <rect x="16.9" y="72.9" width="2" height="2"/>
  <rect x="16.9" y="74.9" width="2" height="2"/>
  <rect x="14.9" y="18.9" width="2" height="2"/>
  <rect x="14.9" y="20.9" width="2" height="2"/>
  <rect x="14.9" y="22.9" width="2" height="2"/>
  <rect x="14.9" y="24.9" width="2" height="2"/>
  <rect x="14.9" y="26.9" width="2" height="2"/>
  <rect x="14.9" y="28.9" width="2" height="2"/>
  <rect x="14.9" y="70.9" width="2" height="2"/>
  <rect x="14.9" y="72.9" width="2" height="2"/>
  <rect x="14.9" y="74.9" width="2" height="2"/>
  <rect x="12.9" y="18.9" width="2" height="2"/>
  <rect x="12.9" y="20.9" width="2" height="2"/>
  <rect x="12.9" y="22.9" width="2" height="2"/>
  <rect x="12.9" y="24.9" width="2" height="2"/>
  <rect x="12.9" y="26.9" width="2" height="2"/>
  <rect x="12.9" y="28.9" width="2" height="2"/>
  <rect x="12.9" y="30.9" width="2" height="2"/>
  <rect x="12.9" y="32.9" width="2" height="2"/>
  <rect x="12.9" y="34.9" width="2" height="2"/>
  <rect x="12.9" y="36.9" width="2" height="2"/>
  <rect x="12.9" y="38.9" width="2" height="2"/>
  <rect x="12.9" y="40.9" width="2" height="2"/>
  <rect x="12.9" y="42.9" width="2" height="2"/>
  <rect x="12.9" y="44.9" width="2" height="2"/>
  <rect x="12.9" y="46.9" width="2" height="2"/>
  <rect x="12.9" y="48.9" width="2" height="2"/>
  <rect x="12.9" y="50.9" width="2" height="2"/>
  <rect x="12.9" y="52.9" width="2" height="2"/>
  <rect x="12.9" y="54.9" width="2" height="2"/>
  <rect x="12.9" y="56.9" width="2" height="2"/>
  <rect x="12.9" y="58.9" width="2" height="2"/>
  <rect x="12.9" y="60.9" width="2" height="2"/>
  <rect x="12.9" y="62.9" width="2" height="2"/>
  <rect x="12.9" y="64.9" width="2" height="2"/>
  <rect x="12.9" y="66.9" width="2" height="2"/>
  <rect x="12.9" y="68.9" width="2" height="2"/>
  <rect x="12.9" y="70.9" width="2" height="2"/>
  <rect x="12.9" y="72.9" width="2" height="2"/>
  <rect x="12.9" y="74.9" width="2" height="2"/>
  <rect class="st3" x="10.9" y="18.9" width="2" height="2"/>
  <rect x="10.9" y="20.9" width="2" height="2"/>
  <rect x="10.9" y="22.9" width="2" height="2"/>
  <rect x="10.9" y="24.9" width="2" height="2"/>
  <rect x="10.9" y="26.9" width="2" height="2"/>
  <rect x="10.9" y="28.9" width="2" height="2"/>
  <rect x="10.9" y="30.9" width="2" height="2"/>
  <rect x="10.9" y="32.9" width="2" height="2"/>
  <rect x="10.9" y="34.9" width="2" height="2"/>
  <rect x="10.9" y="36.9" width="2" height="2"/>
  <rect x="10.9" y="38.9" width="2" height="2"/>
  <rect x="10.9" y="40.9" width="2" height="2"/>
  <rect x="10.9" y="42.9" width="2" height="2"/>
  <rect x="10.9" y="44.9" width="2" height="2"/>
  <rect x="10.9" y="46.9" width="2" height="2"/>
  <rect x="10.9" y="48.9" width="2" height="2"/>
  <rect x="10.9" y="50.9" width="2" height="2"/>
  <rect x="10.9" y="52.9" width="2" height="2"/>
  <rect x="10.9" y="54.9" width="2" height="2"/>
  <rect x="10.9" y="56.9" width="2" height="2"/>
  <rect x="10.9" y="58.9" width="2" height="2"/>
  <rect x="10.9" y="60.9" width="2" height="2"/>
  <rect x="10.9" y="62.9" width="2" height="2"/>
  <rect x="10.9" y="64.9" width="2" height="2"/>
  <rect x="10.9" y="66.9" width="2" height="2"/>
  <rect x="10.9" y="68.9" width="2" height="2"/>
  <rect x="10.9" y="70.9" width="2" height="2"/>
  <rect x="10.9" y="72.9" width="2" height="2"/>
  <rect x="10.9" y="74.9" width="2" height="2"/>
</svg>