<?xml version="1.0" encoding="UTF-8"?>
<svg id="Layer_2" xmlns="http://www.w3.org/2000/svg" version="1.1" viewBox="0 0 96 96">
  <!-- Generator: Adobe Illustrator 29.1.0, SVG Export Plug-In . SVG Version: 2.1.0 Build 142)  -->
  <rect x="32.8" y="72.9" width="2" height="2"/>
  <rect x="30.8" y="70.9" width="2" height="2"/>
  <rect x="24.8" y="54.9" width="2" height="2"/>
  <rect x="26.8" y="54.9" width="2" height="2"/>
  <rect x="28.8" y="56.9" width="2" height="2"/>
  <rect x="30.8" y="62.9" width="2" height="2"/>
  <rect x="76.8" y="28.9" width="2" height="2"/>
  <rect x="76.8" y="22.9" width="2" height="2"/>
  <rect x="76.8" y="20.9" width="2" height="2"/>
  <rect x="76.8" y="18.9" width="2" height="2"/>
  <rect x="76.8" y="16.9" width="2" height="2"/>
  <rect x="74.8" y="38.9" width="2" height="2"/>
  <rect x="74.8" y="36.9" width="2" height="2"/>
  <rect x="74.8" y="34.9" width="2" height="2"/>
  <rect x="74.8" y="32.9" width="2" height="2"/>
  <rect x="74.8" y="30.9" width="2" height="2"/>
  <rect x="74.8" y="28.9" width="2" height="2"/>
  <rect x="74.8" y="22.9" width="2" height="2"/>
  <rect x="74.8" y="20.9" width="2" height="2"/>
  <rect x="74.8" y="18.9" width="2" height="2"/>
  <rect x="74.8" y="16.9" width="2" height="2"/>
  <rect x="72.8" y="48.9" width="2" height="2"/>
  <rect x="72.8" y="46.9" width="2" height="2"/>
  <rect x="72.8" y="44.9" width="2" height="2"/>
  <rect x="72.8" y="42.9" width="2" height="2"/>
  <rect x="72.8" y="40.9" width="2" height="2"/>
  <rect x="72.8" y="38.9" width="2" height="2"/>
  <rect x="72.8" y="36.9" width="2" height="2"/>
  <rect x="72.8" y="34.9" width="2" height="2"/>
  <rect x="72.8" y="32.9" width="2" height="2"/>
  <rect x="72.8" y="30.9" width="2" height="2"/>
  <rect x="72.8" y="28.9" width="2" height="2"/>
  <rect x="72.8" y="22.9" width="2" height="2"/>
  <rect x="72.8" y="20.9" width="2" height="2"/>
  <rect x="72.8" y="18.9" width="2" height="2"/>
  <rect x="72.8" y="16.9" width="2" height="2"/>
  <rect x="70.8" y="56.9" width="2" height="2"/>
  <rect x="70.8" y="54.9" width="2" height="2"/>
  <rect x="70.8" y="52.9" width="2" height="2"/>
  <rect x="70.8" y="50.9" width="2" height="2"/>
  <rect x="70.8" y="48.9" width="2" height="2"/>
  <rect x="70.8" y="46.9" width="2" height="2"/>
  <rect x="70.8" y="44.9" width="2" height="2"/>
  <rect x="70.8" y="42.9" width="2" height="2"/>
  <rect x="70.8" y="40.9" width="2" height="2"/>
  <rect x="70.8" y="38.9" width="2" height="2"/>
  <rect x="70.8" y="32.9" width="2" height="2"/>
  <rect x="70.8" y="30.9" width="2" height="2"/>
  <rect x="70.8" y="22.9" width="2" height="2"/>
  <rect x="70.8" y="20.9" width="2" height="2"/>
  <rect x="70.8" y="18.9" width="2" height="2"/>
  <rect x="70.8" y="16.9" width="2" height="2"/>
  <rect x="68.8" y="66.9" width="2" height="2"/>
  <rect x="68.8" y="64.9" width="2" height="2"/>
  <rect x="68.8" y="62.9" width="2" height="2"/>
  <rect x="68.8" y="60.9" width="2" height="2"/>
  <rect x="68.8" y="58.9" width="2" height="2"/>
  <rect x="68.8" y="56.9" width="2" height="2"/>
  <rect x="68.8" y="54.9" width="2" height="2"/>
  <rect x="68.8" y="52.9" width="2" height="2"/>
  <rect x="68.8" y="50.9" width="2" height="2"/>
  <rect x="68.8" y="48.9" width="2" height="2"/>
  <rect x="68.8" y="44.9" width="2" height="2"/>
  <rect x="68.8" y="42.9" width="2" height="2"/>
  <rect x="68.8" y="40.9" width="2" height="2"/>
  <rect x="68.8" y="38.9" width="2" height="2"/>
  <rect x="68.8" y="22.9" width="2" height="2"/>
  <rect x="68.8" y="20.9" width="2" height="2"/>
  <rect x="68.8" y="18.9" width="2" height="2"/>
  <rect x="68.8" y="16.9" width="2" height="2"/>
  <rect x="68.8" y="14.9" width="2" height="2"/>
  <rect x="66.8" y="78.9" width="2" height="2"/>
  <rect x="66.8" y="76.9" width="2" height="2"/>
  <rect x="66.8" y="74.9" width="2" height="2"/>
  <rect x="66.8" y="72.9" width="2" height="2"/>
  <rect x="66.8" y="70.9" width="2" height="2"/>
  <rect x="66.8" y="68.9" width="2" height="2"/>
  <rect x="66.8" y="66.9" width="2" height="2"/>
  <rect x="66.8" y="64.9" width="2" height="2"/>
  <rect x="66.8" y="62.9" width="2" height="2"/>
  <rect x="66.8" y="60.9" width="2" height="2"/>
  <rect x="66.8" y="58.9" width="2" height="2"/>
  <rect x="66.8" y="56.9" width="2" height="2"/>
  <rect x="66.8" y="46.9" width="2" height="2"/>
  <rect x="66.8" y="44.9" width="2" height="2"/>
  <rect x="66.8" y="42.9" width="2" height="2"/>
  <rect x="66.8" y="40.9" width="2" height="2"/>
  <rect x="66.8" y="38.9" width="2" height="2"/>
  <rect x="66.8" y="36.9" width="2" height="2"/>
  <rect x="66.8" y="22.9" width="2" height="2"/>
  <rect x="66.8" y="20.9" width="2" height="2"/>
  <rect x="66.8" y="18.9" width="2" height="2"/>
  <rect x="66.8" y="16.9" width="2" height="2"/>
  <rect x="66.8" y="14.9" width="2" height="2"/>
  <rect x="66.8" y="12.9" width="2" height="2"/>
  <rect x="64.8" y="80.9" width="2" height="2"/>
  <rect x="64.8" y="78.9" width="2" height="2"/>
  <rect x="64.8" y="76.9" width="2" height="2"/>
  <rect x="64.8" y="74.9" width="2" height="2"/>
  <rect x="64.8" y="72.9" width="2" height="2"/>
  <rect x="64.8" y="66.9" width="2" height="2"/>
  <rect x="64.8" y="64.9" width="2" height="2"/>
  <rect x="64.8" y="62.9" width="2" height="2"/>
  <rect x="64.8" y="60.9" width="2" height="2"/>
  <rect x="64.8" y="58.9" width="2" height="2"/>
  <rect x="64.8" y="56.9" width="2" height="2"/>
  <rect x="64.8" y="46.9" width="2" height="2"/>
  <rect x="64.8" y="44.9" width="2" height="2"/>
  <rect x="64.8" y="42.9" width="2" height="2"/>
  <rect x="64.8" y="40.9" width="2" height="2"/>
  <rect x="64.8" y="38.9" width="2" height="2"/>
  <rect x="64.8" y="36.9" width="2" height="2"/>
  <rect x="64.8" y="22.9" width="2" height="2"/>
  <rect x="64.8" y="20.9" width="2" height="2"/>
  <rect x="64.8" y="18.9" width="2" height="2"/>
  <rect x="64.8" y="16.9" width="2" height="2"/>
  <rect x="64.8" y="14.9" width="2" height="2"/>
  <rect x="64.8" y="12.9" width="2" height="2"/>
  <rect x="64.8" y="10.9" width="2" height="2"/>
  <rect x="62.8" y="80.9" width="2" height="2"/>
  <rect x="62.8" y="78.9" width="2" height="2"/>
  <rect x="62.8" y="76.9" width="2" height="2"/>
  <rect x="62.8" y="64.9" width="2" height="2"/>
  <rect x="62.8" y="62.9" width="2" height="2"/>
  <rect x="62.8" y="60.9" width="2" height="2"/>
  <rect x="62.8" y="58.9" width="2" height="2"/>
  <rect x="62.8" y="44.9" width="2" height="2"/>
  <rect x="62.8" y="42.9" width="2" height="2"/>
  <rect x="62.8" y="40.9" width="2" height="2"/>
  <rect x="62.8" y="38.9" width="2" height="2"/>
  <rect x="62.8" y="22.9" width="2" height="2"/>
  <rect x="62.8" y="20.9" width="2" height="2"/>
  <rect x="62.8" y="18.9" width="2" height="2"/>
  <rect x="62.8" y="16.9" width="2" height="2"/>
  <rect x="62.8" y="12.9" width="2" height="2"/>
  <rect x="62.8" y="10.9" width="2" height="2"/>
  <rect x="60.8" y="80.9" width="2" height="2"/>
  <rect x="60.8" y="78.9" width="2" height="2"/>
  <rect x="60.8" y="70.9" width="2" height="2"/>
  <rect x="60.8" y="62.9" width="2" height="2"/>
  <rect x="60.8" y="60.9" width="2" height="2"/>
  <rect x="60.8" y="52.9" width="2" height="2"/>
  <rect x="60.8" y="50.9" width="2" height="2"/>
  <rect x="60.8" y="42.9" width="2" height="2"/>
  <rect x="60.8" y="40.9" width="2" height="2"/>
  <rect x="60.8" y="32.9" width="2" height="2"/>
  <rect x="60.8" y="30.9" width="2" height="2"/>
  <rect x="60.8" y="22.9" width="2" height="2"/>
  <rect x="60.8" y="20.9" width="2" height="2"/>
  <rect x="60.8" y="18.9" width="2" height="2"/>
  <rect x="60.8" y="16.9" width="2" height="2"/>
  <rect x="60.8" y="12.9" width="2" height="2"/>
  <rect x="60.8" y="10.9" width="2" height="2"/>
  <rect x="60.8" y="8.9" width="2" height="2"/>
  <rect x="58.8" y="82.9" width="2" height="2"/>
  <rect x="58.8" y="80.9" width="2" height="2"/>
  <rect x="58.8" y="72.9" width="2" height="2"/>
  <rect x="58.8" y="70.9" width="2" height="2"/>
  <rect x="58.8" y="68.9" width="2" height="2"/>
  <rect x="58.8" y="54.9" width="2" height="2"/>
  <rect x="58.8" y="52.9" width="2" height="2"/>
  <rect x="58.8" y="50.9" width="2" height="2"/>
  <rect x="58.8" y="48.9" width="2" height="2"/>
  <rect x="58.8" y="34.9" width="2" height="2"/>
  <rect x="58.8" y="32.9" width="2" height="2"/>
  <rect x="58.8" y="30.9" width="2" height="2"/>
  <rect x="58.8" y="28.9" width="2" height="2"/>
  <rect x="58.8" y="22.9" width="2" height="2"/>
  <rect x="58.8" y="20.9" width="2" height="2"/>
  <rect x="58.8" y="18.9" width="2" height="2"/>
  <rect x="58.8" y="16.9" width="2" height="2"/>
  <rect x="58.8" y="10.9" width="2" height="2"/>
  <rect x="58.8" y="8.9" width="2" height="2"/>
  <rect x="56.8" y="82.9" width="2" height="2"/>
  <rect x="56.8" y="80.9" width="2" height="2"/>
  <rect x="56.8" y="74.9" width="2" height="2"/>
  <rect x="56.8" y="72.9" width="2" height="2"/>
  <rect x="56.8" y="70.9" width="2" height="2"/>
  <rect x="56.8" y="68.9" width="2" height="2"/>
  <rect x="56.8" y="66.9" width="2" height="2"/>
  <rect x="56.8" y="56.9" width="2" height="2"/>
  <rect x="56.8" y="54.9" width="2" height="2"/>
  <rect x="56.8" y="52.9" width="2" height="2"/>
  <rect x="56.8" y="50.9" width="2" height="2"/>
  <rect x="56.8" y="48.9" width="2" height="2"/>
  <rect x="56.8" y="46.9" width="2" height="2"/>
  <rect x="56.8" y="36.9" width="2" height="2"/>
  <rect x="56.8" y="34.9" width="2" height="2"/>
  <rect x="56.8" y="32.9" width="2" height="2"/>
  <rect x="56.8" y="30.9" width="2" height="2"/>
  <rect x="56.8" y="28.9" width="2" height="2"/>
  <rect x="56.8" y="22.9" width="2" height="2"/>
  <rect x="56.8" y="20.9" width="2" height="2"/>
  <rect x="56.8" y="18.9" width="2" height="2"/>
  <rect x="56.8" y="16.9" width="2" height="2"/>
  <rect x="56.8" y="10.9" width="2" height="2"/>
  <rect x="56.8" y="8.9" width="2" height="2"/>
  <rect x="54.8" y="82.9" width="2" height="2"/>
  <rect x="54.8" y="80.9" width="2" height="2"/>
  <rect x="54.8" y="74.9" width="2" height="2"/>
  <rect x="54.8" y="72.9" width="2" height="2"/>
  <rect x="54.8" y="70.9" width="2" height="2"/>
  <rect x="54.8" y="68.9" width="2" height="2"/>
  <rect x="54.8" y="66.9" width="2" height="2"/>
  <rect x="54.8" y="56.9" width="2" height="2"/>
  <rect x="54.8" y="54.9" width="2" height="2"/>
  <rect x="54.8" y="52.9" width="2" height="2"/>
  <rect x="54.8" y="50.9" width="2" height="2"/>
  <rect x="54.8" y="48.9" width="2" height="2"/>
  <rect x="54.8" y="46.9" width="2" height="2"/>
  <rect x="54.8" y="36.9" width="2" height="2"/>
  <rect x="54.8" y="34.9" width="2" height="2"/>
  <rect x="54.8" y="32.9" width="2" height="2"/>
  <rect x="54.8" y="30.9" width="2" height="2"/>
  <rect x="54.8" y="28.9" width="2" height="2"/>
  <rect x="54.8" y="22.9" width="2" height="2"/>
  <rect x="54.8" y="20.9" width="2" height="2"/>
  <rect x="54.8" y="18.9" width="2" height="2"/>
  <rect x="54.8" y="16.9" width="2" height="2"/>
  <rect x="54.8" y="10.9" width="2" height="2"/>
  <rect x="52.8" y="82.9" width="2" height="2"/>
  <rect x="52.8" y="80.9" width="2" height="2"/>
  <rect x="52.8" y="72.9" width="2" height="2"/>
  <rect x="52.8" y="70.9" width="2" height="2"/>
  <rect x="52.8" y="68.9" width="2" height="2"/>
  <rect x="52.8" y="54.9" width="2" height="2"/>
  <rect x="52.8" y="52.9" width="2" height="2"/>
  <rect x="52.8" y="50.9" width="2" height="2"/>
  <rect x="52.8" y="48.9" width="2" height="2"/>
  <rect x="52.8" y="34.9" width="2" height="2"/>
  <rect x="52.8" y="32.9" width="2" height="2"/>
  <rect x="52.8" y="30.9" width="2" height="2"/>
  <rect x="52.8" y="28.9" width="2" height="2"/>
  <rect x="52.8" y="22.9" width="2" height="2"/>
  <rect x="52.8" y="20.9" width="2" height="2"/>
  <rect x="52.8" y="18.9" width="2" height="2"/>
  <rect x="52.8" y="16.9" width="2" height="2"/>
  <rect x="52.8" y="12.9" width="2" height="2"/>
  <rect x="52.8" y="10.9" width="2" height="2"/>
  <rect x="50.8" y="82.9" width="2" height="2"/>
  <rect x="50.8" y="80.9" width="2" height="2"/>
  <rect x="50.8" y="70.9" width="2" height="2"/>
  <rect x="50.8" y="62.9" width="2" height="2"/>
  <rect x="50.8" y="60.9" width="2" height="2"/>
  <rect x="50.8" y="52.9" width="2" height="2"/>
  <rect x="50.8" y="50.9" width="2" height="2"/>
  <rect x="50.8" y="42.9" width="2" height="2"/>
  <rect x="50.8" y="40.9" width="2" height="2"/>
  <rect x="50.8" y="32.9" width="2" height="2"/>
  <rect x="50.8" y="30.9" width="2" height="2"/>
  <rect x="50.8" y="22.9" width="2" height="2"/>
  <rect x="50.8" y="20.9" width="2" height="2"/>
  <rect x="50.8" y="18.9" width="2" height="2"/>
  <rect x="50.8" y="16.9" width="2" height="2"/>
  <rect x="50.8" y="12.9" width="2" height="2"/>
  <rect x="50.8" y="10.9" width="2" height="2"/>
  <rect x="48.8" y="82.9" width="2" height="2"/>
  <rect x="48.8" y="80.9" width="2" height="2"/>
  <rect x="48.8" y="78.9" width="2" height="2"/>
  <rect x="48.8" y="64.9" width="2" height="2"/>
  <rect x="48.8" y="62.9" width="2" height="2"/>
  <rect x="48.8" y="60.9" width="2" height="2"/>
  <rect x="48.8" y="58.9" width="2" height="2"/>
  <rect x="48.8" y="44.9" width="2" height="2"/>
  <rect x="48.8" y="42.9" width="2" height="2"/>
  <rect x="48.8" y="40.9" width="2" height="2"/>
  <rect x="48.8" y="38.9" width="2" height="2"/>
  <rect x="48.8" y="22.9" width="2" height="2"/>
  <rect x="48.8" y="20.9" width="2" height="2"/>
  <rect x="48.8" y="18.9" width="2" height="2"/>
  <rect x="48.8" y="16.9" width="2" height="2"/>
  <rect x="48.8" y="14.9" width="2" height="2"/>
  <rect x="48.8" y="12.9" width="2" height="2"/>
  <rect x="48.8" y="10.9" width="2" height="2"/>
  <rect x="46.8" y="82.9" width="2" height="2"/>
  <rect x="46.8" y="80.9" width="2" height="2"/>
  <rect x="46.8" y="78.9" width="2" height="2"/>
  <rect x="46.8" y="76.9" width="2" height="2"/>
  <rect x="46.8" y="66.9" width="2" height="2"/>
  <rect x="46.8" y="64.9" width="2" height="2"/>
  <rect x="46.8" y="62.9" width="2" height="2"/>
  <rect x="46.8" y="60.9" width="2" height="2"/>
  <rect x="46.8" y="58.9" width="2" height="2"/>
  <rect x="46.8" y="56.9" width="2" height="2"/>
  <rect x="46.8" y="46.9" width="2" height="2"/>
  <rect x="46.8" y="44.9" width="2" height="2"/>
  <rect x="46.8" y="42.9" width="2" height="2"/>
  <rect x="46.8" y="40.9" width="2" height="2"/>
  <rect x="46.8" y="38.9" width="2" height="2"/>
  <rect x="46.8" y="36.9" width="2" height="2"/>
  <rect x="46.8" y="22.9" width="2" height="2"/>
  <rect x="46.8" y="20.9" width="2" height="2"/>
  <rect x="46.8" y="18.9" width="2" height="2"/>
  <rect x="46.8" y="16.9" width="2" height="2"/>
  <rect x="46.8" y="14.9" width="2" height="2"/>
  <rect x="46.8" y="12.9" width="2" height="2"/>
  <rect x="44.8" y="82.9" width="2" height="2"/>
  <rect x="44.8" y="80.9" width="2" height="2"/>
  <rect x="44.8" y="78.9" width="2" height="2"/>
  <rect x="44.8" y="76.9" width="2" height="2"/>
  <rect x="44.8" y="66.9" width="2" height="2"/>
  <rect x="44.8" y="64.9" width="2" height="2"/>
  <rect x="44.8" y="62.9" width="2" height="2"/>
  <rect x="44.8" y="60.9" width="2" height="2"/>
  <rect x="44.8" y="58.9" width="2" height="2"/>
  <rect x="44.8" y="56.9" width="2" height="2"/>
  <rect x="44.8" y="46.9" width="2" height="2"/>
  <rect x="44.8" y="44.9" width="2" height="2"/>
  <rect x="44.8" y="42.9" width="2" height="2"/>
  <rect x="44.8" y="40.9" width="2" height="2"/>
  <rect x="44.8" y="38.9" width="2" height="2"/>
  <rect x="44.8" y="36.9" width="2" height="2"/>
  <rect x="44.8" y="22.9" width="2" height="2"/>
  <rect x="44.8" y="20.9" width="2" height="2"/>
  <rect x="44.8" y="18.9" width="2" height="2"/>
  <rect x="44.8" y="16.9" width="2" height="2"/>
  <rect x="44.8" y="14.9" width="2" height="2"/>
  <rect x="44.8" y="12.9" width="2" height="2"/>
  <rect x="44.8" y="10.9" width="2" height="2"/>
  <rect x="42.8" y="82.9" width="2" height="2"/>
  <rect x="42.8" y="80.9" width="2" height="2"/>
  <rect x="42.8" y="78.9" width="2" height="2"/>
  <rect x="42.8" y="64.9" width="2" height="2"/>
  <rect x="42.8" y="62.9" width="2" height="2"/>
  <rect x="42.8" y="60.9" width="2" height="2"/>
  <rect x="42.8" y="58.9" width="2" height="2"/>
  <rect x="42.8" y="44.9" width="2" height="2"/>
  <rect x="42.8" y="42.9" width="2" height="2"/>
  <rect x="42.8" y="40.9" width="2" height="2"/>
  <rect x="42.8" y="38.9" width="2" height="2"/>
  <rect x="42.8" y="22.9" width="2" height="2"/>
  <rect x="42.8" y="20.9" width="2" height="2"/>
  <rect x="42.8" y="18.9" width="2" height="2"/>
  <rect x="42.8" y="16.9" width="2" height="2"/>
  <rect x="42.8" y="14.9" width="2" height="2"/>
  <rect x="42.8" y="12.9" width="2" height="2"/>
  <rect x="42.8" y="10.9" width="2" height="2"/>
  <rect x="40.8" y="82.9" width="2" height="2"/>
  <rect x="40.8" y="80.9" width="2" height="2"/>
  <rect x="40.8" y="70.9" width="2" height="2"/>
  <rect x="40.8" y="62.9" width="2" height="2"/>
  <rect x="40.8" y="60.9" width="2" height="2"/>
  <rect x="40.8" y="52.9" width="2" height="2"/>
  <rect x="40.8" y="50.9" width="2" height="2"/>
  <rect x="40.8" y="42.9" width="2" height="2"/>
  <rect x="40.8" y="40.9" width="2" height="2"/>
  <rect x="40.8" y="32.9" width="2" height="2"/>
  <rect x="40.8" y="30.9" width="2" height="2"/>
  <rect x="40.8" y="22.9" width="2" height="2"/>
  <rect x="40.8" y="20.9" width="2" height="2"/>
  <rect x="40.8" y="18.9" width="2" height="2"/>
  <rect x="40.8" y="16.9" width="2" height="2"/>
  <rect x="40.8" y="12.9" width="2" height="2"/>
  <rect x="40.8" y="10.9" width="2" height="2"/>
  <rect x="40.8" y="8.9" width="2" height="2"/>
  <rect x="40.8" y="6.9" width="2" height="2"/>
  <rect x="38.8" y="82.9" width="2" height="2"/>
  <rect x="38.8" y="80.9" width="2" height="2"/>
  <rect x="38.8" y="72.9" width="2" height="2"/>
  <rect x="38.8" y="70.9" width="2" height="2"/>
  <rect x="38.8" y="68.9" width="2" height="2"/>
  <rect x="38.8" y="54.9" width="2" height="2"/>
  <rect x="38.8" y="52.9" width="2" height="2"/>
  <rect x="38.8" y="50.9" width="2" height="2"/>
  <rect x="38.8" y="48.9" width="2" height="2"/>
  <rect x="38.8" y="34.9" width="2" height="2"/>
  <rect x="38.8" y="32.9" width="2" height="2"/>
  <rect x="38.8" y="30.9" width="2" height="2"/>
  <rect x="38.8" y="28.9" width="2" height="2"/>
  <rect x="38.8" y="22.9" width="2" height="2"/>
  <rect x="38.8" y="20.9" width="2" height="2"/>
  <rect x="38.8" y="18.9" width="2" height="2"/>
  <rect x="38.8" y="16.9" width="2" height="2"/>
  <rect x="38.8" y="10.9" width="2" height="2"/>
  <rect x="38.8" y="8.9" width="2" height="2"/>
  <rect x="38.8" y="6.9" width="2" height="2"/>
  <rect x="36.8" y="82.9" width="2" height="2"/>
  <rect x="36.8" y="80.9" width="2" height="2"/>
  <rect x="36.8" y="74.9" width="2" height="2"/>
  <rect x="36.8" y="72.9" width="2" height="2"/>
  <rect x="36.8" y="70.9" width="2" height="2"/>
  <rect x="36.8" y="68.9" width="2" height="2"/>
  <rect x="36.8" y="66.9" width="2" height="2"/>
  <rect x="36.8" y="56.9" width="2" height="2"/>
  <rect x="36.8" y="54.9" width="2" height="2"/>
  <rect x="36.8" y="52.9" width="2" height="2"/>
  <rect x="36.8" y="50.9" width="2" height="2"/>
  <rect x="36.8" y="48.9" width="2" height="2"/>
  <rect x="36.8" y="46.9" width="2" height="2"/>
  <rect x="36.8" y="36.9" width="2" height="2"/>
  <rect x="36.8" y="34.9" width="2" height="2"/>
  <rect x="36.8" y="32.9" width="2" height="2"/>
  <rect x="36.8" y="30.9" width="2" height="2"/>
  <rect x="36.8" y="28.9" width="2" height="2"/>
  <rect x="36.8" y="22.9" width="2" height="2"/>
  <rect x="36.8" y="20.9" width="2" height="2"/>
  <rect x="36.8" y="18.9" width="2" height="2"/>
  <rect x="36.8" y="16.9" width="2" height="2"/>
  <rect x="36.8" y="10.9" width="2" height="2"/>
  <rect x="36.8" y="8.9" width="2" height="2"/>
  <rect x="36.8" y="6.9" width="2" height="2"/>
  <rect x="34.8" y="82.9" width="2" height="2"/>
  <rect x="34.8" y="80.9" width="2" height="2"/>
  <rect x="34.8" y="74.9" width="2" height="2"/>
  <rect x="34.8" y="72.9" width="2" height="2"/>
  <rect x="34.8" y="70.9" width="2" height="2"/>
  <rect x="34.8" y="68.9" width="2" height="2"/>
  <rect x="34.8" y="66.9" width="2" height="2"/>
  <rect x="34.8" y="56.9" width="2" height="2"/>
  <rect x="34.8" y="54.9" width="2" height="2"/>
  <rect x="34.8" y="52.9" width="2" height="2"/>
  <rect x="34.8" y="50.9" width="2" height="2"/>
  <rect x="34.8" y="48.9" width="2" height="2"/>
  <rect x="34.8" y="46.9" width="2" height="2"/>
  <rect x="34.8" y="34.9" width="2" height="2"/>
  <rect x="34.8" y="32.9" width="2" height="2"/>
  <rect x="34.8" y="30.9" width="2" height="2"/>
  <rect x="34.8" y="28.9" width="2" height="2"/>
  <rect x="34.8" y="22.9" width="2" height="2"/>
  <rect x="34.8" y="20.9" width="2" height="2"/>
  <rect x="34.8" y="18.9" width="2" height="2"/>
  <rect x="34.8" y="16.9" width="2" height="2"/>
  <rect x="34.8" y="10.9" width="2" height="2"/>
  <rect x="34.8" y="8.9" width="2" height="2"/>
  <rect x="34.8" y="6.9" width="2" height="2"/>
  <rect x="32.8" y="82.9" width="2" height="2"/>
  <rect x="32.8" y="80.9" width="2" height="2"/>
  <rect x="32.8" y="78.9" width="2" height="2"/>
  <rect x="32.8" y="70.9" width="2" height="2"/>
  <rect x="32.8" y="68.9" width="2" height="2"/>
  <rect x="32.8" y="60.9" width="2" height="2"/>
  <rect x="32.8" y="54.9" width="2" height="2"/>
  <rect x="32.8" y="52.9" width="2" height="2"/>
  <rect x="32.8" y="50.9" width="2" height="2"/>
  <rect x="32.8" y="48.9" width="2" height="2"/>
  <rect x="32.8" y="32.9" width="2" height="2"/>
  <rect x="32.8" y="30.9" width="2" height="2"/>
  <rect x="32.8" y="22.9" width="2" height="2"/>
  <rect x="32.8" y="20.9" width="2" height="2"/>
  <rect x="32.8" y="18.9" width="2" height="2"/>
  <rect x="32.8" y="16.9" width="2" height="2"/>
  <rect x="32.8" y="12.9" width="2" height="2"/>
  <rect x="32.8" y="10.9" width="2" height="2"/>
  <rect x="32.8" y="8.9" width="2" height="2"/>
  <rect x="30.8" y="80.9" width="2" height="2"/>
  <rect x="30.8" y="78.9" width="2" height="2"/>
  <rect x="30.8" y="76.9" width="2" height="2"/>
  <rect x="30.8" y="60.9" width="2" height="2"/>
  <rect x="30.8" y="58.9" width="2" height="2"/>
  <rect x="30.8" y="52.9" width="2" height="2"/>
  <rect x="30.8" y="50.9" width="2" height="2"/>
  <rect x="30.8" y="42.9" width="2" height="2"/>
  <rect x="30.8" y="40.9" width="2" height="2"/>
  <rect x="30.8" y="22.9" width="2" height="2"/>
  <rect x="30.8" y="20.9" width="2" height="2"/>
  <rect x="30.8" y="18.9" width="2" height="2"/>
  <rect x="30.8" y="16.9" width="2" height="2"/>
  <rect x="30.8" y="14.9" width="2" height="2"/>
  <rect x="30.8" y="12.9" width="2" height="2"/>
  <rect x="30.8" y="10.9" width="2" height="2"/>
  <rect x="28.8" y="80.9" width="2" height="2"/>
  <rect x="28.8" y="78.9" width="2" height="2"/>
  <rect x="28.8" y="76.9" width="2" height="2"/>
  <rect x="28.8" y="74.9" width="2" height="2"/>
  <rect x="28.8" y="64.9" width="2" height="2"/>
  <rect x="28.8" y="62.9" width="2" height="2"/>
  <rect x="28.8" y="60.9" width="2" height="2"/>
  <rect x="28.8" y="58.9" width="2" height="2"/>
  <rect x="28.8" y="44.9" width="2" height="2"/>
  <rect x="28.8" y="42.9" width="2" height="2"/>
  <rect x="28.8" y="40.9" width="2" height="2"/>
  <rect x="28.8" y="38.9" width="2" height="2"/>
  <rect x="28.8" y="22.9" width="2" height="2"/>
  <rect x="28.8" y="20.9" width="2" height="2"/>
  <rect x="28.8" y="18.9" width="2" height="2"/>
  <rect x="28.8" y="16.9" width="2" height="2"/>
  <rect x="28.8" y="14.9" width="2" height="2"/>
  <rect x="28.8" y="12.9" width="2" height="2"/>
  <rect x="28.8" y="10.9" width="2" height="2"/>
  <rect x="26.8" y="80.9" width="2" height="2"/>
  <rect x="26.8" y="78.9" width="2" height="2"/>
  <rect x="26.8" y="76.9" width="2" height="2"/>
  <rect x="26.8" y="74.9" width="2" height="2"/>
  <rect x="26.8" y="72.9" width="2" height="2"/>
  <rect x="26.8" y="70.9" width="2" height="2"/>
  <rect x="26.8" y="68.9" width="2" height="2"/>
  <rect x="26.8" y="66.9" width="2" height="2"/>
  <rect x="26.8" y="64.9" width="2" height="2"/>
  <rect x="26.8" y="62.9" width="2" height="2"/>
  <rect x="26.8" y="60.9" width="2" height="2"/>
  <rect x="26.8" y="58.9" width="2" height="2"/>
  <rect x="26.8" y="56.9" width="2" height="2"/>
  <rect x="26.8" y="46.9" width="2" height="2"/>
  <rect x="26.8" y="44.9" width="2" height="2"/>
  <rect x="26.8" y="42.9" width="2" height="2"/>
  <rect x="26.8" y="40.9" width="2" height="2"/>
  <rect x="26.8" y="38.9" width="2" height="2"/>
  <rect x="26.8" y="36.9" width="2" height="2"/>
  <rect x="26.8" y="22.9" width="2" height="2"/>
  <rect x="26.8" y="20.9" width="2" height="2"/>
  <rect x="26.8" y="18.9" width="2" height="2"/>
  <rect x="26.8" y="16.9" width="2" height="2"/>
  <rect x="26.8" y="14.9" width="2" height="2"/>
  <rect x="26.8" y="12.9" width="2" height="2"/>
  <rect x="24.8" y="76.9" width="2" height="2"/>
  <rect x="24.8" y="74.9" width="2" height="2"/>
  <rect x="24.8" y="72.9" width="2" height="2"/>
  <rect x="24.8" y="70.9" width="2" height="2"/>
  <rect x="24.8" y="68.9" width="2" height="2"/>
  <rect x="24.8" y="66.9" width="2" height="2"/>
  <rect x="24.8" y="64.9" width="2" height="2"/>
  <rect x="24.8" y="62.9" width="2" height="2"/>
  <rect x="24.8" y="60.9" width="2" height="2"/>
  <rect x="24.8" y="58.9" width="2" height="2"/>
  <rect x="24.8" y="56.9" width="2" height="2"/>
  <rect x="24.8" y="44.9" width="2" height="2"/>
  <rect x="24.8" y="42.9" width="2" height="2"/>
  <rect x="24.8" y="40.9" width="2" height="2"/>
  <rect x="24.8" y="38.9" width="2" height="2"/>
  <rect x="24.8" y="22.9" width="2" height="2"/>
  <rect x="24.8" y="20.9" width="2" height="2"/>
  <rect x="24.8" y="18.9" width="2" height="2"/>
  <rect x="24.8" y="16.9" width="2" height="2"/>
  <rect x="24.8" y="14.9" width="2" height="2"/>
  <rect x="22.8" y="62.9" width="2" height="2"/>
  <rect x="22.8" y="60.9" width="2" height="2"/>
  <rect x="22.8" y="58.9" width="2" height="2"/>
  <rect x="22.8" y="56.9" width="2" height="2"/>
  <rect x="22.8" y="54.9" width="2" height="2"/>
  <rect x="22.8" y="52.9" width="2" height="2"/>
  <rect x="22.8" y="50.9" width="2" height="2"/>
  <rect x="22.8" y="48.9" width="2" height="2"/>
  <rect x="22.8" y="46.9" width="2" height="2"/>
  <rect x="22.8" y="44.9" width="2" height="2"/>
  <rect x="22.8" y="42.9" width="2" height="2"/>
  <rect x="22.8" y="40.9" width="2" height="2"/>
  <rect x="22.8" y="32.9" width="2" height="2"/>
  <rect x="22.8" y="22.9" width="2" height="2"/>
  <rect x="22.8" y="20.9" width="2" height="2"/>
  <rect x="22.8" y="18.9" width="2" height="2"/>
  <rect x="22.8" y="16.9" width="2" height="2"/>
  <rect x="20.8" y="48.9" width="2" height="2"/>
  <rect x="20.8" y="46.9" width="2" height="2"/>
  <rect x="20.8" y="44.9" width="2" height="2"/>
  <rect x="20.8" y="42.9" width="2" height="2"/>
  <rect x="20.8" y="40.9" width="2" height="2"/>
  <rect x="20.8" y="38.9" width="2" height="2"/>
  <rect x="20.8" y="36.9" width="2" height="2"/>
  <rect x="20.8" y="34.9" width="2" height="2"/>
  <rect x="20.8" y="32.9" width="2" height="2"/>
  <rect x="20.8" y="30.9" width="2" height="2"/>
  <rect x="20.8" y="22.9" width="2" height="2"/>
  <rect x="20.8" y="20.9" width="2" height="2"/>
  <rect x="20.8" y="18.9" width="2" height="2"/>
  <rect x="20.8" y="16.9" width="2" height="2"/>
  <rect x="18.8" y="42.9" width="2" height="2"/>
  <rect x="18.8" y="40.9" width="2" height="2"/>
  <rect x="18.8" y="38.9" width="2" height="2"/>
  <rect x="18.8" y="36.9" width="2" height="2"/>
  <rect x="18.8" y="34.9" width="2" height="2"/>
  <rect x="18.8" y="32.9" width="2" height="2"/>
  <rect x="18.8" y="30.9" width="2" height="2"/>
  <rect x="18.8" y="28.9" width="2" height="2"/>
  <rect x="18.8" y="22.9" width="2" height="2"/>
  <rect x="18.8" y="20.9" width="2" height="2"/>
  <rect x="18.8" y="18.9" width="2" height="2"/>
  <rect x="18.8" y="16.9" width="2" height="2"/>
  <rect x="16.8" y="28.9" width="2" height="2"/>
  <rect x="16.8" y="22.9" width="2" height="2"/>
  <rect x="16.8" y="20.9" width="2" height="2"/>
  <rect x="16.8" y="18.9" width="2" height="2"/>
  <rect x="16.8" y="16.9" width="2" height="2"/>
  <rect x="14.8" y="22.9" width="2" height="2"/>
  <rect x="14.8" y="20.9" width="2" height="2"/>
  <rect x="14.8" y="18.9" width="2" height="2"/>
  <rect x="14.8" y="16.9" width="2" height="2"/>
</svg>